<?xml version="1.0" encoding="iso-8859-1"?>
<!-- Generator: Adobe Illustrator 19.0.0, SVG Export Plug-In . SVG Version: 6.00 Build 0)  -->
<svg version="1.1" id="Capa_1" xmlns="http://www.w3.org/2000/svg" xmlns:xlink="http://www.w3.org/1999/xlink" x="0px" y="0px"
	 viewBox="0 0 705.428 705.428" style="enable-background:new 0 0 705.428 705.428;" xml:space="preserve">
<g>
	<g>
		<g>
			<path d="M483.052,116.828c-5.757-3.852-13.057-4.584-19.47-1.942l-68.461,28.235c-10.769-11.052-25.796-17.932-42.408-17.932
				s-31.639,6.882-42.408,17.932l-68.461-28.235c-6.407-2.642-13.714-1.913-19.47,1.942c-22.099,14.793-24.483,51.258-24.483,66.252
				c0.002,14.992,2.388,51.455,24.485,66.243c3.469,2.322,7.497,3.509,11.553,3.509c2.679,0,5.367-0.517,7.915-1.567l66.628-27.477
				c10.859,12.194,26.665,19.895,44.24,19.895c17.575,0,33.381-7.701,44.24-19.895l66.628,27.477
				c2.548,1.051,5.238,1.567,7.915,1.567c4.056,0,8.084-1.186,11.553-3.509c22.097-14.788,24.483-51.253,24.485-66.243
				C507.537,168.086,505.151,131.621,483.052,116.828z M242.171,206.197c-1.504-5.597-2.741-13.484-2.741-23.122
				c0-9.636,1.239-17.522,2.741-23.122l51.394,21.193c-0.059,1.09-0.096,2.185-0.096,3.288c0,0.201,0.013,0.401,0.015,0.6
				L242.171,206.197z M352.713,202.143c-9.765,0-17.708-7.944-17.708-17.708s7.944-17.708,17.708-17.708s17.708,7.944,17.708,17.708
				S362.478,202.143,352.713,202.143z M463.256,206.197l-51.31-21.16c0.002-0.201,0.015-0.401,0.015-0.6
				c0-1.103-0.037-2.198-0.096-3.288l51.394-21.193c1.502,5.597,2.741,13.484,2.741,23.122
				C465.996,192.711,464.759,200.598,463.256,206.197z"/>
		</g>
		<path d="M352.713,551.499c-32.67,0-59.245-26.578-59.245-59.245s26.578-59.245,59.245-59.245c32.67,0,59.245,26.578,59.245,59.245
			S385.383,551.499,352.713,551.499z M352.713,474.545c-9.765,0-17.708,7.944-17.708,17.708c0,9.765,7.944,17.708,17.708,17.708
			s17.708-7.944,17.708-17.708C370.421,482.489,362.478,474.545,352.713,474.545z"/>
		<path d="M352.713,397.592c-32.67,0-59.245-26.578-59.245-59.245s26.578-59.245,59.245-59.245c32.67,0,59.245,26.578,59.245,59.245
			S385.383,397.592,352.713,397.592z M352.713,320.636c-9.765,0-17.708,7.944-17.708,17.708s7.944,17.708,17.708,17.708
			s17.708-7.944,17.708-17.708C370.421,328.58,362.478,320.636,352.713,320.636z"/>
		<path d="M265.662,554.22L126.948,169.181c-2.336-6.486-6.961-11.895-13.002-15.213c-7.6-4.172-16.485-6.289-26.414-6.289
			c-30.988,0-80.311,23.445-87.066,60.184c-1.245,6.779,0.024,13.779,3.572,19.687L214.79,578.379
			c5.271,8.773,14.618,13.729,24.273,13.729c4.078,0,8.215-0.884,12.12-2.738C264.333,583.124,270.598,567.918,265.662,554.22z"/>
		<path d="M704.962,207.865c-6.755-36.739-56.078-60.184-87.066-60.184c-9.929,0-18.816,2.115-26.414,6.289
			c-6.044,3.318-10.667,8.727-13.002,15.213L439.766,554.222c-4.936,13.698,1.329,28.905,14.482,35.15
			c3.905,1.856,8.04,2.738,12.12,2.738c9.655,0,19.002-4.956,24.273-13.729l210.751-350.828
			C704.938,221.645,706.208,214.642,704.962,207.865z"/>
	</g>
</g>
<g>
</g>
<g>
</g>
<g>
</g>
<g>
</g>
<g>
</g>
<g>
</g>
<g>
</g>
<g>
</g>
<g>
</g>
<g>
</g>
<g>
</g>
<g>
</g>
<g>
</g>
<g>
</g>
<g>
</g>
</svg>
