<?xml version="1.0" encoding="iso-8859-1"?>
<!-- Generator: Adobe Illustrator 18.0.0, SVG Export Plug-In . SVG Version: 6.00 Build 0)  -->
<!DOCTYPE svg PUBLIC "-//W3C//DTD SVG 1.1//EN" "http://www.w3.org/Graphics/SVG/1.1/DTD/svg11.dtd">
<svg version="1.1" id="Capa_1" xmlns="http://www.w3.org/2000/svg" xmlns:xlink="http://www.w3.org/1999/xlink" x="0px" y="0px"
	 viewBox="0 0 220.689 220.689" style="enable-background:new 0 0 220.689 220.689;" xml:space="preserve">
<g>
	<path d="M215.645,58.758c-2.339-9.61-7.082-17.963-13.715-24.154c-12.583-11.747-29.888-16.101-46.013-11.829
		C138.258,8.304,115.868,0,92.437,0C56.835,0,23.633,19.165,5.785,50.016c-1.254,2.168-1.254,4.842,0,7.01
		c15.936,27.547,44.318,45.875,75.61,49.388c-3.459,11.554-4.742,23.566-3.945,35.423c-12.068-5.106-25.956-5.218-38.375,0.222
		c-3.13,1.37-4.813,4.8-3.982,8.114c2.244,8.952,6.969,17.09,13.665,23.533c2.489,2.395,3.299,10.343,1.313,12.884
		c-5.723,7.32-9.255,16.043-10.215,25.224c-0.355,3.398,1.794,6.557,5.085,7.473c3.387,0.942,7.644,1.405,12.344,1.404
		c14.174,0,32.37-4.208,42.834-12.157c4.693-3.566,7.212-7.333,8.503-10.758c2.154-0.458,4.899-1.181,8.52-2.232
		c0.363-0.105,0.639-0.187,0.8-0.23c5.134-1.406,10.192-3.234,15.033-5.434c9.482-4.307,18.006-9.866,25.333-16.526
		c14.549-13.224,25.242-30.923,30.109-49.838c4.11-15.97,4.07-32.911,0.175-48.924l22.479-7.54
		C214.516,65.894,216.504,62.29,215.645,58.758z M91.649,197.385c-8.809,6.691-25.617,9.761-36.529,9.292
		c1.261-4.125,3.28-8.012,5.981-11.466c6.421-8.217,5.09-24.162-2.637-31.595c-3.227-3.104-5.813-6.754-7.65-10.758
		c10.268-2.351,21.177,0.112,29.461,6.849c2.961,11.786,8.048,23.084,15.198,33.234C94.894,194.396,93.624,195.884,91.649,197.385z
		 M174.858,120.024c-4.194,16.301-13.416,31.56-25.967,42.967c-5.78,5.254-12.473,9.706-19.899,13.278
		c4.468-4.837,9.186-10.407,13.712-16.579c22.073-30.106,28.651-59.996,19.021-86.437c-1.323-3.632-5.337-5.507-8.973-4.182
		c-3.633,1.322-5.505,5.34-4.182,8.973c16.104,44.219-28.124,88.495-44.314,102.802c-13.832-22.209-16.889-49.878-8.079-74.574
		l29.932-5.011c3.813-0.639,6.386-4.247,5.748-8.061c-0.639-3.813-4.252-6.387-8.061-5.748l-33.155,5.551
		c-12.576-0.26-24.785-3.319-35.829-8.706c6.171-1.507,12.275-3.681,18.529-6.576c3.509-1.624,5.036-5.785,3.412-9.293
		c-1.625-3.509-5.781-5.038-9.293-3.412c-10.206,4.725-19.905,7.213-30.37,7.783c-6.553-5.489-12.327-11.964-17.045-19.28
		C35.821,29.042,63.188,14,92.437,14c30.595,0,59.132,16.458,74.493,42.958C177.375,76.028,180.266,99.011,174.858,120.024z
		 M184.349,61.246c-1.504-3.795-3.217-7.509-5.185-11.093c-0.024-0.046-0.051-0.092-0.076-0.137
		c-3.071-5.309-6.607-10.262-10.521-14.841c8.626,0.088,17.131,3.429,23.81,9.663c3.214,3,5.807,6.787,7.658,11.146L184.349,61.246z
		"/>
	<circle cx="84.131" cy="39.026" r="8.711"/>
</g>
<g>
</g>
<g>
</g>
<g>
</g>
<g>
</g>
<g>
</g>
<g>
</g>
<g>
</g>
<g>
</g>
<g>
</g>
<g>
</g>
<g>
</g>
<g>
</g>
<g>
</g>
<g>
</g>
<g>
</g>
</svg>
